
<svg id="font" height="450" width="2000"
  xmlns="http://www.w3.org/2000/svg">

<style type="text/css">
  #font{
    font-family: Helvetica, sans-serif;
  }
  #outline{
  stroke-width:3;
  stroke: black;
  fill: none
  }
  #gridlines{
    stroke: black;
    stroke-width: 3;
  }
  #diags{
    stroke: black;
    stroke-width: 2;
  }
  #markers1{
    stroke: black;
    stroke-width: 2;
  }
  #markers2{
    stroke: black;
    stroke-width: 2;
  }
  #title {
  font-weight: bold;
  font-size: 1.75em;
  fill: black;
  }
  #markerlabel{
  font-size: 0.85em;
  fill: black;
  }
  #axislabel{
  font-size: 1.25em;
  fill: black;
  }
  #group{
  font-size: 1.5em;
  font-weight: bold;
  fill: crimson;
  }

#Carley {
fill: crimson;
opacity: .8
}

#Cesar {
fill: #512a44;
opacity: .8
}

#Kendall {
fill: #014208;
opacity: 0.6
}

#Melissa {
fill: #f1be48;
opacity: 0.5
}


#Carley_l{
fill: crimson;
}

#Cesar_l {
fill: #512a44;
opacity: 1
}

#Kendall_l {
fill: #014208;
opacity: 1
}

#Melissa_l {
fill: #f1be48;
opacity: 1
}

#legend{
font-weight: bold;
font-size: 1.5em;
}

#now{
fill: crimson;
opacity: 1
}

#preferred{
fill: #512a44;
opacity: .9
}

#now_l{
fill: crimson;
}

#preferred_l {
fill: #512a44;
opacity: 1
}

</style>
<svg viewBox="0 0 450 450" width="400" x="0%" y="0%">
<rect id="outline" width="300" height="300" x="50" y="50"/>

<g id="gridlines">
  <line x1="200" y1="50" x2="200" y2="350"/>
  <line x1="50" y1="200" x2="350" y2="200"/>
</g>

<g id="diags">
  <line x1="50" y1="50" x2="350" y2="350"/>
  <line x1="350" y1="50" x2="50" y2="350"/>
</g>

<g id="markers1">
  <line x1="220" y1="230" x2="240" y2="230"/>
</g>
<use href="#markers1"  x="30" y="30" />
<use href="#markers1"  x="60" y="60" />
<use href="#markers1"  x="90" y="90" />
<use href="#markers1"  x="-60" y="-60" />
<use href="#markers1"  x="-90" y="-90" />
<use href="#markers1"  x="-120" y="-120" />
<use href="#markers1"  x="-150" y="-150" />

<g id="markers2">
  <line x1="160" y1="230" x2="180" y2="230"/>
</g>
<use href="#markers2"  x="-30" y="30" />
<use href="#markers2"  x="-60" y="60" />
<use href="#markers2"  x="-90" y="90" />
<use href="#markers2"  x="60" y="-60" />
<use href="#markers2"  x="90" y="-90" />
<use href="#markers2"  x="120" y="-120" />
<use href="#markers2"  x="150" y="-150" />

<g id="markerlabel">
  <!-- bottom right -->
  <text x="245" y="233">20</text>
  <text x="275" y="263">40</text>
  <text x="305" y="293">60</text>
  <text x="335" y="323">80</text>

  <!-- top right -->
  <text x="245" y="173">20</text>
  <text x="275" y="143">40</text>
  <text x="305" y="113">60</text>
  <text x="335" y="83">80</text>

  <!-- bottom left -->
  <text x="145" y="233">20</text>
  <text x="115" y="263">40</text>
  <text x="85" y="293">60</text>
  <text x="55" y="323">80</text>

  <!-- top left -->
  <text x="145" y="173">20</text>
  <text x="115" y="143">40</text>
  <text x="85" y="113">60</text>
  <text x="55" y="83">80</text>
</g>

<text id="title" x="50" y="15"> KSB Present Values </text>

<g id="axislabel">
    <text x="170" y="45">Flexibility</text>
    <text x="182" y="365">Focus</text>
    <text x="45" y="220" transform="rotate(270, 45, 220)">Internal</text>
    <text x="355" y="170" transform="rotate(90, 355, 170)">External</text>
    <text x="60" y="195">A</text>
    <text x="60" y="215">D</text>
    <text x="330" y="195">B</text>
    <text x="330" y="215">C</text>
  </g>

  <g id="group">
      <text x="35" y="60" transform="rotate(315, 35, 60)">Clan</text>
      <text x="25" y="330" transform="rotate(45, 15, 320)">Hierachy</text>
      <text x="325" y="17" transform="rotate(45, 325, 17)">Adhocracy</text>
      <text x="345" y="380" transform="rotate(315, 345, 380)">Market</text>
  </g>

<polygon id="Carley" points="178,178 145,255 250,250 223,176"/>
<polygon id="Cesar" points="166,166 212,187 221,221 117,282"/>
<polygon id="Kendall" points="193,193 226,173 271,271 153,246"/>
<polygon id="Melissa" points="161,161 216,183 248,248 153,246"/>
</svg>
<!-- Legend -->
<!-- <+20   rect width="170" height="260" x="410" y="70" style="opacity: 0.6"/> -->
<polygon id="Carley_l" points="389,89 382.5,127.5 435,125 421.5,88"/>
<polygon id="Cesar_l" points="403,143 426,153.5 430.5,170.5 378.5,201"/>
<polygon id="Kendall_l" points="401.5,216.5 418,206.5 440.5,255.5 381.5,243"/> <!-- /2 + 350 -->
<polygon id="Melissa_l" points="390.5,270.5 423,281.5 439,314 391.5,313"/>

<g id="legend">
    <text id="Carley_l" x="440" y="108">Carley</text>
    <text id="Cesar_l" x="440" y="172">Cesar</text>
    <text id="Kendall_l" x="440" y="231">Kendall</text>
    <text id="Melissa_l" x="440" y="294">Melissa</text>
</g>


<!-- Preferences -->
<svg viewBox="0 0 450 450" width="400" x="32%" y="0%">
<rect id="outline" width="300" height="300" x="50" y="50"/>

<g id="gridlines">
  <line x1="200" y1="50" x2="200" y2="350"/>
  <line x1="50" y1="200" x2="350" y2="200"/>
</g>

<g id="diags">
  <line x1="50" y1="50" x2="350" y2="350"/>
  <line x1="350" y1="50" x2="50" y2="350"/>
</g>

<g id="markers1">
  <line x1="220" y1="230" x2="240" y2="230"/>
</g>
<use href="#markers1"  x="30" y="30" />
<use href="#markers1"  x="60" y="60" />
<use href="#markers1"  x="90" y="90" />
<use href="#markers1"  x="-60" y="-60" />
<use href="#markers1"  x="-90" y="-90" />
<use href="#markers1"  x="-120" y="-120" />
<use href="#markers1"  x="-150" y="-150" />

<g id="markers2">
  <line x1="160" y1="230" x2="180" y2="230"/>
</g>
<use href="#markers2"  x="-30" y="30" />
<use href="#markers2"  x="-60" y="60" />
<use href="#markers2"  x="-90" y="90" />
<use href="#markers2"  x="60" y="-60" />
<use href="#markers2"  x="90" y="-90" />
<use href="#markers2"  x="120" y="-120" />
<use href="#markers2"  x="150" y="-150" />

<g id="markerlabel">
  <!-- bottom right -->
  <text x="245" y="233">20</text>
  <text x="275" y="263">40</text>
  <text x="305" y="293">60</text>
  <text x="335" y="323">80</text>

  <!-- top right -->
  <text x="245" y="173">20</text>
  <text x="275" y="143">40</text>
  <text x="305" y="113">60</text>
  <text x="335" y="83">80</text>

  <!-- bottom left -->
  <text x="145" y="233">20</text>
  <text x="115" y="263">40</text>
  <text x="85" y="293">60</text>
  <text x="55" y="323">80</text>

  <!-- top left -->
  <text x="145" y="173">20</text>
  <text x="115" y="143">40</text>
  <text x="85" y="113">60</text>
  <text x="55" y="83">80</text>
</g>

<text id="title" x="50" y="15"> KSB Preferred Values </text>

<g id="axislabel">
    <text x="170" y="45">Flexibility</text>
    <text x="182" y="365">Focus</text>
    <text x="45" y="220" transform="rotate(270, 45, 220)">Internal</text>
    <text x="355" y="170" transform="rotate(90, 355, 170)">External</text>
    <text x="60" y="195">A</text>
    <text x="60" y="215">D</text>
    <text x="330" y="195">B</text>
    <text x="330" y="215">C</text>
  </g>

  <g id="group">
      <text x="35" y="60" transform="rotate(315, 35, 60)">Clan</text>
      <text x="25" y="330" transform="rotate(45, 15, 320)">Hierachy</text>
      <text x="325" y="17" transform="rotate(45, 325, 17)">Adhocracy</text>
      <text x="345" y="380" transform="rotate(315, 345, 380)">Market</text>
  </g>

<polygon id="Carley" points="150,150 175,225 210,210 265,135"/>
<polygon id="Cesar" points="158,158 167,232 233,233 242,157"/>
<polygon id="Kendal" points="160,160 157,242 231,231 236,163"/>
<polygon id="Melissa" points="130,130 158,241 217,217 221,178"/>
</svg>

<svg viewBox="0 0 450 450" width="200" x="47.75%" y="-20%">
<polygon id="Carley_l" points="150,150 175,225 210,210 265,135"/>
</svg>
<svg viewBox="0 0 450 450" width="200" x="47.8%" y="-9.5%">
<polygon id="Cesar_l" points="158,158 167,232 233,233 242,157"/>
</svg>
<svg viewBox="0 0 450 450" width="200" x="48%" y="3%">
<polygon id="Kendall_l" points="160,160 157,242 231,231 236,163"/>
</svg>
<svg viewBox="0 0 450 450" width="200" x="48.5%" y="17.%">
<polygon id="Melissa_l" points="130,130 158,241 217,217 221,178"/>
</svg>

<g id="legend">
    <text id="Carley_l" x="1075" y="108">Carley</text>
    <text id="Cesar_l" x="1075" y="172">Cesar</text>
    <text id="Kendall_l" x="1075" y="231">Kendall</text>
    <text id="Melissa_l" x="1075" y="294">Melissa</text>
</g>




<!--Comparison-->

<svg viewBox="0 0 450 450" width="400" x="65%" y="0%">

<rect id="outline" width="300" height="300" x="50" y="50"/>

<g id="gridlines">
  <line x1="200" y1="50" x2="200" y2="350"/>
  <line x1="50" y1="200" x2="350" y2="200"/>
</g>

<g id="diags">
  <line x1="50" y1="50" x2="350" y2="350"/>
  <line x1="350" y1="50" x2="50" y2="350"/>
</g>

<g id="markers1">
  <line x1="220" y1="230" x2="240" y2="230"/>
</g>
<use href="#markers1"  x="30" y="30" />
<use href="#markers1"  x="60" y="60" />
<use href="#markers1"  x="90" y="90" />
<use href="#markers1"  x="-60" y="-60" />
<use href="#markers1"  x="-90" y="-90" />
<use href="#markers1"  x="-120" y="-120" />
<use href="#markers1"  x="-150" y="-150" />

<g id="markers2">
  <line x1="160" y1="230" x2="180" y2="230"/>
</g>
<use href="#markers2"  x="-30" y="30" />
<use href="#markers2"  x="-60" y="60" />
<use href="#markers2"  x="-90" y="90" />
<use href="#markers2"  x="60" y="-60" />
<use href="#markers2"  x="90" y="-90" />
<use href="#markers2"  x="120" y="-120" />
<use href="#markers2"  x="150" y="-150" />

<g id="markerlabel">
  <!-- bottom right -->
  <text x="245" y="233">20</text>
  <text x="275" y="263">40</text>
  <text x="305" y="293">60</text>
  <text x="335" y="323">80</text>

  <!-- top right -->
  <text x="245" y="173">20</text>
  <text x="275" y="143">40</text>
  <text x="305" y="113">60</text>
  <text x="335" y="83">80</text>

  <!-- bottom left -->
  <text x="145" y="233">20</text>
  <text x="115" y="263">40</text>
  <text x="85" y="293">60</text>
  <text x="55" y="323">80</text>

  <!-- top left -->
  <text x="145" y="173">20</text>
  <text x="115" y="143">40</text>
  <text x="85" y="113">60</text>
  <text x="55" y="83">80</text>
</g>

<text id="title" x="50" y="15"> KSB Average Values </text>

<g id="axislabel">
    <text x="170" y="45">Flexibility</text>
    <text x="182" y="365">Focus</text>
    <text x="45" y="220" transform="rotate(270, 45, 220)">Internal</text>
    <text x="355" y="170" transform="rotate(90, 355, 170)">External</text>
    <text x="60" y="195">A</text>
    <text x="60" y="215">D</text>
    <text x="330" y="195">B</text>
    <text x="330" y="215">C</text>
  </g>

  <g id="group">
      <text x="35" y="60" transform="rotate(315, 35, 60)">Clan</text>
      <text x="25" y="330" transform="rotate(45, 15, 320)">Hierachy</text>
      <text x="325" y="17" transform="rotate(45, 325, 17)">Adhocracy</text>
      <text x="345" y="380" transform="rotate(315, 345, 380)">Market</text>
  </g>

<polygon id="now" points="175,175 142,257.5 247,247 219,180"/>
<polygon id="preferred" points="149,149 164,235 223,223 241,158"/>
<!-- <polygon id="Cesar" points="158,158 167,232 233,233 242,157"/>
<polygon id="Kendal" points="160,160 157,242 231,231 236,163"/>
<polygon id="Melissa" points="130,130 158,241 217,217 221,178"/> -->
</svg>

<svg viewBox="0 0 450 450" width="200" x="81.2%" y="-10%">
<polygon id="now_l" points="175,175 142,257.5 247,247 219,180"/>
</svg>
<svg viewBox="0 0 450 450" width="200" x="81.2%" y="05%">
<polygon id="preferred_l" points="149,149 164,235 223,223 241,158"/>
</svg>


<g id="legend">
    <text id="now_l" x="1750" y="180">Now</text>
    <text id="preferred_l" x="1750" y="236">Preferred</text>
</g>


</svg>
