<svg id="font" height="400" width="600"
  xmlns="http://www.w3.org/2000/svg">

<style type="text/css">
  #font{
    font-family: Helvetica, sans-serif;
  }
  #outline{
  stroke-width:3;
  stroke: black;
  fill: none
  }
  #gridlines{
    stroke: black;
    stroke-width: 3;
  }
  #diags{
    stroke: black;
    stroke-width: 2;
  }
  #markers1{
    stroke: black;
    stroke-width: 2;
  }
  #markers2{
    stroke: black;
    stroke-width: 2;
  }
  #title {
  font-weight: bold;
  font-size: 1.75em;
  fill: black;
  }
  #markerlabel{
  font-size: 0.85em;
  fill: black;
  }
  #axislabel{
  font-size: 1.25em;
  fill: black;
  }
  #group{
  font-size: 1.5em;
  font-weight: bold;
  fill: crimson;
  }

#Carley {
fill: crimson;
opacity: .8
}

#Cesar {
fill: #512a44;
opacity: .8
}

#Kendal {
fill: #014208;
opacity: 0.6
}

#Melissa {
fill: #f1be48;
opacity: 0.5
}

#Carley_l{
fill: crimson;
}

#Cesar_l {
fill: #512a44;
opacity: 1
}

#Kendall_l {
fill: #014208;
opacity: 1
}

#Melissa_l {
fill: #f1be48;
opacity: 1
}

#legend{
font-weight: bold;
font-size: 1.5em;
}

</style>

<rect id="outline" width="300" height="300" x="50" y="50"/>

<g id="gridlines">
  <line x1="200" y1="50" x2="200" y2="350"/>
  <line x1="50" y1="200" x2="350" y2="200"/>
</g>

<g id="diags">
  <line x1="50" y1="50" x2="350" y2="350"/>
  <line x1="350" y1="50" x2="50" y2="350"/>
</g>

<g id="markers1">
  <line x1="220" y1="230" x2="240" y2="230"/>
</g>
<use href="#markers1"  x="30" y="30" />
<use href="#markers1"  x="60" y="60" />
<use href="#markers1"  x="90" y="90" />
<use href="#markers1"  x="-60" y="-60" />
<use href="#markers1"  x="-90" y="-90" />
<use href="#markers1"  x="-120" y="-120" />
<use href="#markers1"  x="-150" y="-150" />

<g id="markers2">
  <line x1="160" y1="230" x2="180" y2="230"/>
</g>
<use href="#markers2"  x="-30" y="30" />
<use href="#markers2"  x="-60" y="60" />
<use href="#markers2"  x="-90" y="90" />
<use href="#markers2"  x="60" y="-60" />
<use href="#markers2"  x="90" y="-90" />
<use href="#markers2"  x="120" y="-120" />
<use href="#markers2"  x="150" y="-150" />

<g id="markerlabel">
  <!-- bottom right -->
  <text x="245" y="233">20</text>
  <text x="275" y="263">40</text>
  <text x="305" y="293">60</text>
  <text x="335" y="323">80</text>

  <!-- top right -->
  <text x="245" y="173">20</text>
  <text x="275" y="143">40</text>
  <text x="305" y="113">60</text>
  <text x="335" y="83">80</text>

  <!-- bottom left -->
  <text x="145" y="233">20</text>
  <text x="115" y="263">40</text>
  <text x="85" y="293">60</text>
  <text x="55" y="323">80</text>

  <!-- top left -->
  <text x="145" y="173">20</text>
  <text x="115" y="143">40</text>
  <text x="85" y="113">60</text>
  <text x="55" y="83">80</text>
</g>

<text id="title" x="95" y="15"> KSB Preferred Values </text>

<g id="axislabel">
    <text x="170" y="45">Flexibility</text>
    <text x="182" y="365">Focus</text>
    <text x="45" y="220" transform="rotate(270, 45, 220)">Internal</text>
    <text x="355" y="170" transform="rotate(90, 355, 170)">External</text>
    <text x="60" y="195">A</text>
    <text x="60" y="215">D</text>
    <text x="330" y="195">B</text>
    <text x="330" y="215">C</text>
  </g>

  <g id="group">
      <text x="35" y="60" transform="rotate(315, 35, 60)">Clan</text>
      <text x="25" y="330" transform="rotate(45, 15, 320)">Hierachy</text>
      <text x="325" y="17" transform="rotate(45, 325, 17)">Adhocracy</text>
      <text x="345" y="380" transform="rotate(315, 345, 380)">Market</text>
  </g>

<polygon id="Carley" points="150,150 175,225 210,210 265,135"/>
<polygon id="Cesar" points="158,158 167,232 233,233 242,157"/>
<polygon id="Kendal" points="160,160 157,242 231,231 236,163"/>
<polygon id="Melissa" points="130,130 158,241 217,217 221,178"/>


<svg viewBox="0 0 400 400" width="200" x="59%" y="-20%">
<polygon id="Carley_l" points="150,150 175,225 210,210 265,135"/>
</svg>
<svg viewBox="0 0 400 400" width="200" x="59%" y="-8%">
<polygon id="Cesar_l" points="158,158 167,232 233,233 242,157"/>
</svg>
<svg viewBox="0 0 400 400" width="200" x="60%" y="7%">
<polygon id="Kendall_l" points="160,160 157,242 231,231 236,163"/>
</svg>
<svg viewBox="0 0 400 400" width="200" x="62%" y="24%">
<polygon id="Melissa_l" points="130,130 158,241 217,217 221,178"/>
</svg>

<g id="legend">
    <text id="Carley_l" x="490" y="108">Carley</text>
    <text id="Cesar_l" x="490" y="172">Cesar</text>
    <text id="Kendall_l" x="490" y="231">Kendall</text>
    <text id="Melissa_l" x="490" y="294">Melissa</text>
</g>
<!--

<polygon id="Carley_l" points="439,89 422.5,127.5 475,125 461.5,88" fill="crimson"/>
<polygon id="Cesar_l" points="433,83 456,93.5 360.5,110.5 408.5,141"/>
 <polygon id="Kendal_l" points="193,193 226,173 271,271 153,246"/>
<polygon id="Melissa_l" points="161,161 216,183 248,248 153,246"/>

<use href="#Cesar" x="300" y="-100"/>
<use href="#Kendal" x="250" y="0"/>
<use href="#Melissa" x="280" y="100"/>
-->
</svg>
